HIERARCHY
ROOT hip
{
	OFFSET 0.000000 0.000000 0.000000 
	CHANNELS 6 Xposition Yposition Zposition Xrotation Zrotation Yrotation
	JOINT abdomen
	{
		OFFSET 0.000000 3.402643 0.000000 
		CHANNELS 3 Xrotation Zrotation Yrotation
		JOINT chest
		{
			OFFSET 0.000000 8.438565 -0.680529 
			CHANNELS 3 Xrotation Zrotation Yrotation
			JOINT neck
			{
				OFFSET 0.000000 10.207942 -0.272212 
				CHANNELS 3 Xrotation Zrotation Yrotation
				JOINT head
				{
					OFFSET 0.000000 3.130431 0.000000 
					CHANNELS 3 Xrotation Zrotation Yrotation
					End Site
					{
						OFFSET 0.000000 3.130435 0.000000 
					}
				}
			}
			JOINT lCollar
			{
				OFFSET 3.470700 6.669187 -0.816635 
				CHANNELS 3 Yrotation Zrotation Xrotation
				JOINT lShldr
				{
					OFFSET 3.198488 0.000000 0.000000 
					CHANNELS 3 Zrotation Yrotation Xrotation
					JOINT lForeArm
					{
						OFFSET 10.139888 0.000000 0.000000 
						CHANNELS 3 Yrotation Zrotation Xrotation
						JOINT lHand
						{
							OFFSET 8.370511 0.000000 0.000000 
							CHANNELS 3 Zrotation Yrotation Xrotation
							End Site
							{
								OFFSET 4.083176 0.000000 0.000000 
							}
						}
					}
				}
			}
			JOINT rCollar
			{
				OFFSET -3.470700 6.669187 -0.816635 
				CHANNELS 3 Yrotation Zrotation Xrotation
				JOINT rShldr
				{
					OFFSET -3.198488 0.000000 0.000000 
					CHANNELS 3 Zrotation Yrotation Xrotation
					JOINT rForeArm
					{
						OFFSET -10.139888 0.000000 0.000000 
						CHANNELS 3 Yrotation Zrotation Xrotation
						JOINT rHand
						{
							OFFSET -8.370511 0.000000 0.000000 
							CHANNELS 3 Zrotation Yrotation Xrotation
							End Site
							{
								OFFSET -4.083176 0.000000 0.000000 
							}
						}
					}
				}
			}
		}
	}
	JOINT lThigh
	{
		OFFSET 5.308129 -1.633274 1.361059 
		CHANNELS 3 Xrotation Zrotation Yrotation
		JOINT lShin
		{
			OFFSET -2.041588 -20.007561 0.000000 
			CHANNELS 3 Xrotation Zrotation Yrotation
			JOINT lFoot
			{
				OFFSET 0.000000 -19.190928 -1.224953 
				CHANNELS 3 Xrotation Yrotation Zrotation
				End Site
				{
					OFFSET 0.000000 -2.449906 4.627600 
				}
			}
		}
	}
	JOINT rThigh
	{
		OFFSET -5.308129 -1.633274 1.361059 
		CHANNELS 3 Xrotation Zrotation Yrotation
		JOINT rShin
		{
			OFFSET 2.041588 -20.007561 0.000000 
			CHANNELS 3 Xrotation Zrotation Yrotation
			JOINT rFoot
			{
				OFFSET 0.000000 -19.190928 -1.224953 
				CHANNELS 3 Xrotation Yrotation Zrotation
				End Site
				{
					OFFSET 0.000000 -2.449906 4.627600 
				}
			}
		}
	}
}
MOTION
Frames: 13
Frame Time: 0.011111
6.128889 50.097988 137.517914 155.999466 178.512497 -1.485093 0.979221 -1.325462 7.637604 -17.968975 -2.854028 2.599111 4.158247 18.627987 20.003380 31.044573 -15.637055 30.087561 -4.148943 -6.307207 -0.011134 -54.975254 -19.743860 31.930237 -52.720154 8.275222 9.267751 8.524705 12.647240 -6.487684 8.203756 10.988382 -1.689603 63.509033 10.975874 -15.742691 43.444714 -5.919182 5.634574 -8.534408 -12.637552 40.706890 -30.011621 3.310779 -8.314938 22.647877 -5.681885 -3.892168 -16.867947 -0.158535 -2.965786 -34.880486 3.349010 16.293369 34.857464 5.021143 5.463541 -23.371971 -10.217153 -1.445519 
6.132324 50.092491 137.514481 156.057755 178.499100 -1.456792 0.883828 -1.244124 7.622838 -17.939558 -2.863743 2.586679 4.183568 18.699802 20.107424 30.801022 -15.975408 30.267393 -4.148943 -6.307207 -0.011134 -54.934925 -19.652645 32.101730 -52.551968 8.242415 9.195346 8.524705 12.647240 -6.565809 8.203756 10.988382 -1.689603 63.647678 10.758727 -15.754630 43.525612 -5.937090 5.663024 -8.534408 -12.637552 40.931499 -29.966803 3.310630 -8.365586 22.667988 -5.682047 -3.893955 -16.889137 -0.132299 -2.962482 -34.799492 3.337693 16.256857 34.858311 5.011602 5.470465 -23.411432 -10.186907 -1.464247 
6.137818 50.089397 137.512070 156.106110 178.483078 -1.397981 0.793401 -1.199623 7.636867 -17.978296 -2.941996 2.597200 4.203295 18.835949 20.173204 30.599228 -16.211792 30.394215 -4.148943 -6.307207 -0.011134 -54.785660 -19.484655 32.398907 -52.457058 8.222328 9.154056 8.524705 12.647240 -6.653699 8.203756 10.988382 -1.689603 63.883286 10.476437 -15.634388 43.669601 -5.988654 5.719140 -8.534408 -12.637552 41.312355 -29.922930 3.291301 -8.402625 22.697546 -5.682175 -3.916050 -16.926464 -0.155192 -2.975749 -34.709080 3.336445 16.238245 34.847595 5.021116 5.462669 -23.434666 -10.211572 -1.470525 
6.144344 50.085964 137.511383 156.144470 178.444504 -1.360178 0.677404 -1.118494 7.623430 -17.948816 -2.972362 2.591818 4.230534 18.881071 20.236460 30.347521 -16.447575 30.500664 -4.148943 -6.307207 -0.011134 -54.718250 -19.371822 32.659576 -52.446323 8.218557 9.144676 8.524705 12.647240 -6.702528 8.203756 10.988382 -1.689603 64.030083 10.270364 -15.246791 43.904564 -6.055422 5.795942 -8.534408 -12.637552 41.829933 -29.899174 3.310214 -8.378580 22.723408 -5.660357 -3.894402 -16.931313 -0.232334 -2.985737 -34.646526 3.358478 16.231155 34.837364 5.026695 5.453744 -23.461649 -10.253096 -1.489253 
6.150526 50.081844 137.510361 156.192841 178.423660 -1.314173 0.572011 -1.044935 7.604557 -17.919275 -3.001428 2.576726 4.238387 18.932833 20.292702 30.126923 -16.710264 30.638020 -4.148943 -6.307207 -0.011134 -54.651630 -19.249256 32.910469 -52.425797 8.217574 9.143331 8.524705 12.647240 -6.741590 8.203756 10.988382 -1.689603 64.155052 10.080935 -14.936015 44.099545 -6.120659 5.880785 -8.534408 -12.637552 42.259624 -29.859947 3.330086 -8.404037 22.738419 -5.682346 -3.900161 -16.959837 -0.247990 -2.983756 -34.574638 3.366890 16.207802 34.826988 5.030846 5.454075 -23.507267 -10.270989 -1.506098 
6.156709 50.078068 137.510361 156.251099 178.406586 -1.276801 0.477042 -0.972638 7.575629 -17.880138 -3.012862 2.573375 4.236548 18.987936 20.342243 29.931087 -16.967979 30.733791 -4.148943 -6.307207 -0.011134 -54.584167 -19.136431 33.190655 -52.446140 8.219172 9.154421 8.524705 12.647240 -6.770887 8.203756 10.988382 -1.689603 64.266258 9.919165 -14.557954 44.304802 -6.182715 5.948014 -8.534408 -12.637552 42.728374 -29.813625 3.320259 -8.423265 22.751312 -5.668896 -3.908302 -16.979017 -0.258196 -2.978674 -34.485416 3.375403 16.215721 34.827496 5.026672 5.452873 -23.547588 -10.301953 -1.530113 
6.162890 50.073948 137.511017 156.299591 178.389816 -1.239670 0.372187 -0.893526 7.559108 -17.850714 -3.022547 2.560848 4.255426 19.037655 20.382603 29.755306 -17.218494 30.823076 -4.148943 -6.307207 -0.011134 -54.527870 -19.004852 33.489918 -52.499054 8.230824 9.174168 8.524705 12.647240 -6.780653 8.203756 10.988382 -1.689603 64.366539 9.765713 -14.128750 44.550346 -6.253274 6.044594 -8.534408 -12.637552 43.206890 -29.745905 3.330275 -8.448074 22.758463 -5.681410 -3.911468 -17.005510 -0.280462 -3.013667 -34.421623 3.387639 16.182167 34.827171 5.026649 5.462555 -23.572676 -10.318329 -1.542435 
6.169415 50.069824 137.512756 156.357849 178.372894 -1.202234 0.267564 -0.838868 7.530482 -17.840942 -3.022983 2.560333 4.284003 19.083977 20.426552 29.606709 -17.459255 30.872015 -4.148943 -6.307207 -0.011134 -54.462795 -18.862829 33.838451 -52.593967 8.250828 9.215507 8.524705 12.647240 -6.780653 8.203756 10.988382 -1.689603 64.468254 9.602609 -13.681729 44.807709 -6.334135 6.138551 -8.534408 -12.637552 43.695168 -29.702003 3.310307 -8.485460 22.803509 -5.660913 -3.912203 -17.045849 -0.283568 -2.982692 -34.340981 3.386479 16.162422 34.827171 5.026647 5.462555 -23.593239 -10.319782 -1.545425 
6.176285 50.066044 137.515503 156.416336 178.368896 -1.169811 0.170842 -0.792013 7.530227 -17.840885 -3.032660 2.559023 4.324135 19.147726 20.456064 29.468630 -17.689880 30.916124 -4.148943 -6.307207 -0.011134 -54.389740 -18.700617 34.229626 -52.720154 8.275222 9.267751 8.524705 12.647240 -6.770887 8.203756 10.988382 -1.689603 64.567146 9.458843 -13.224976 45.085457 -6.417960 6.241972 -8.534408 -12.637552 44.183453 -29.656361 3.310214 -8.526478 22.813337 -5.664632 -3.894327 -17.074562 -0.296637 -2.979373 -34.270855 3.385775 16.151146 34.837730 5.021098 5.461800 -23.634480 -10.314999 -1.570814 
6.182810 50.062267 137.518585 156.474884 178.368881 -1.146338 0.064643 -0.749413 7.517284 -17.850592 -3.041902 2.558231 4.383689 19.204691 20.492817 29.349344 -17.908289 30.927633 -4.148943 -6.307207 -0.011134 -54.307880 -18.527964 34.650490 -52.877617 8.303768 9.331016 8.524705 12.647240 -6.741590 8.203756 10.988382 -1.689603 64.666054 9.315089 -12.748719 45.383629 -6.504473 6.357199 -8.534408 -12.637552 44.671730 -29.581470 3.300980 -8.557502 22.800613 -5.673359 -3.913519 -17.075787 -0.271377 -2.987344 -34.191288 3.375166 16.133812 34.837364 5.026700 5.453745 -23.661215 -10.331007 -1.571259 
6.190023 50.057800 137.522385 156.543228 178.368683 -1.122587 -0.040492 -0.697747 7.498015 -17.840822 -3.042337 2.557712 4.423360 19.248898 20.521101 29.254950 -18.116362 30.948120 -4.148943 -6.307207 -0.011134 -54.242680 -18.385946 35.047787 -53.055618 8.332553 9.395981 8.524705 12.647240 -6.712293 8.203756 10.988382 -1.689603 64.751183 9.198979 -12.252284 45.692730 -6.594223 6.471050 -8.534408 -12.637552 45.150246 -29.526094 3.291029 -8.587297 22.810665 -5.673440 -3.914412 -17.076464 -0.257924 -2.990851 -34.129986 3.378637 16.121923 34.847271 5.021103 5.472355 -23.672739 -10.328679 -1.572592 
6.197578 50.053337 137.527191 156.611557 178.368561 -1.098837 -0.134411 -0.645284 7.462491 -17.830994 -3.041462 2.547517 4.453087 19.286726 20.545147 29.169724 -18.317652 30.961763 -4.148943 -6.307207 -0.011134 -54.194962 -18.264833 35.405128 -53.234585 8.367156 9.480158 8.524705 12.647240 -6.673231 8.203756 10.988382 -1.689603 64.810181 9.128472 -11.736541 46.012581 -6.687596 6.595639 -8.534408 -12.637552 45.618999 -29.460072 3.291051 -8.619672 22.820415 -5.673460 -3.925011 -17.107187 -0.236138 -2.990149 -34.050762 3.378168 16.121405 34.858334 5.011373 5.470392 -23.707272 -10.347844 -1.587632 
6.205135 50.048874 137.532333 156.679962 178.372360 -1.084058 -0.217494 -0.572491 7.424924 -17.801748 -3.022095 2.538921 4.471644 19.298021 20.573200 29.097464 -18.538162 30.996523 -4.148943 -6.307207 -0.011134 -54.183079 -18.175783 35.721584 -53.403004 8.396926 9.544003 8.524705 12.647240 -6.634169 8.203756 10.988382 -1.689603 64.833496 9.102204 -11.191019 46.331818 -6.772391 6.714515 -8.534408 -12.637552 46.068222 -29.392448 3.281312 -8.621057 22.830763 -5.673594 -3.916198 -17.116697 -0.239442 -2.992121 -33.960659 3.387048 16.119635 34.867329 5.021171 5.464413 -23.730890 -10.338039 -1.596307 
